<svg width="134.52" height="15.62" viewBox="0 0 134.52 15.62" xmlns="http://www.w3.org/2000/svg"><g id="svgGroup" stroke-linecap="round" fill-rule="evenodd" font-size="9pt" stroke="#ffffff" stroke-width="0.25mm" fill="#ffffff" style="stroke:#ffffff;stroke-width:0.25mm;fill:#ffffff"><path d="M 47.66 8.94 L 47.66 15.44 L 45.4 15.44 L 45.4 9.28 A 4.747 4.747 0 0 0 45.324 8.403 Q 45.231 7.908 45.024 7.52 A 2.387 2.387 0 0 0 44.66 7.01 Q 43.92 6.22 42.64 6.22 A 3.347 3.347 0 0 0 41.759 6.33 A 2.433 2.433 0 0 0 40.61 7.01 A 2.553 2.553 0 0 0 40.025 8.044 Q 39.86 8.586 39.86 9.28 L 39.86 15.44 L 37.6 15.44 L 37.6 9.28 A 4.747 4.747 0 0 0 37.524 8.403 Q 37.431 7.908 37.224 7.52 A 2.387 2.387 0 0 0 36.86 7.01 Q 36.12 6.22 34.84 6.22 A 3.347 3.347 0 0 0 33.959 6.33 A 2.433 2.433 0 0 0 32.81 7.01 A 2.553 2.553 0 0 0 32.225 8.044 Q 32.06 8.586 32.06 9.28 L 32.06 15.44 L 29.78 15.44 L 29.78 4.42 L 32.06 4.42 L 32.06 5.68 A 3.76 3.76 0 0 1 33.367 4.672 A 4.398 4.398 0 0 1 33.48 4.62 Q 34.34 4.24 35.32 4.24 A 5.323 5.323 0 0 1 36.712 4.416 A 4.517 4.517 0 0 1 37.68 4.8 Q 38.72 5.36 39.28 6.42 A 3.633 3.633 0 0 1 40.614 4.965 A 4.493 4.493 0 0 1 40.84 4.83 Q 41.9 4.24 43.12 4.24 Q 44.42 4.24 45.45 4.78 Q 46.48 5.32 47.07 6.38 Q 47.652 7.426 47.66 8.899 A 7.573 7.573 0 0 1 47.66 8.94 Z M 13.56 5.54 L 10.82 5.54 A 4.051 4.051 0 0 0 10.155 4.558 A 3.431 3.431 0 0 0 9.32 3.9 A 4.195 4.195 0 0 0 7.785 3.403 A 5.344 5.344 0 0 0 7.1 3.36 A 5.246 5.246 0 0 0 5.643 3.556 A 4.514 4.514 0 0 0 4.64 3.98 A 4.311 4.311 0 0 0 2.96 5.742 A 5.133 5.133 0 0 0 2.95 5.76 A 5.247 5.247 0 0 0 2.416 7.424 A 6.868 6.868 0 0 0 2.34 8.46 Q 2.34 10 2.95 11.16 Q 3.56 12.32 4.64 12.95 A 4.644 4.644 0 0 0 6.593 13.558 A 5.702 5.702 0 0 0 7.1 13.58 Q 8.36 13.58 9.32 13.04 A 3.548 3.548 0 0 0 10.603 11.793 A 4.49 4.49 0 0 0 10.82 11.4 L 13.56 11.4 A 6.386 6.386 0 0 1 12.214 13.541 A 6.083 6.083 0 0 1 11.05 14.48 A 7.16 7.16 0 0 1 7.656 15.543 A 8.763 8.763 0 0 1 7.1 15.56 A 7.292 7.292 0 0 1 4.192 14.982 A 7.053 7.053 0 0 1 3.52 14.65 Q 1.9 13.74 0.95 12.12 A 6.968 6.968 0 0 1 0.015 8.963 A 8.44 8.44 0 0 1 0 8.46 A 7.506 7.506 0 0 1 0.353 6.13 A 6.723 6.723 0 0 1 0.95 4.8 Q 1.9 3.18 3.53 2.27 Q 5.16 1.36 7.1 1.36 A 7.703 7.703 0 0 1 9.549 1.739 A 6.89 6.89 0 0 1 11.05 2.45 Q 12.78 3.54 13.56 5.54 Z M 94.02 12.06 L 96.38 12.06 A 1.573 1.573 0 0 0 96.923 13.124 A 2.154 2.154 0 0 0 97.05 13.23 Q 97.66 13.7 98.58 13.7 A 4.032 4.032 0 0 0 99.138 13.664 Q 99.422 13.624 99.655 13.541 A 1.755 1.755 0 0 0 100.07 13.33 A 1.391 1.391 0 0 0 100.377 13.044 A 1.054 1.054 0 0 0 100.6 12.38 A 1.015 1.015 0 0 0 100.505 11.933 Q 100.398 11.713 100.173 11.557 A 1.4 1.4 0 0 0 100.01 11.46 Q 99.42 11.16 98.14 10.8 A 26.814 26.814 0 0 1 97.342 10.569 Q 96.987 10.459 96.682 10.352 A 11.608 11.608 0 0 1 96.12 10.14 Q 95.34 9.82 94.77 9.16 A 2.27 2.27 0 0 1 94.28 8.171 Q 94.201 7.826 94.2 7.423 A 4.168 4.168 0 0 1 94.2 7.42 Q 94.2 6.54 94.72 5.81 A 3.175 3.175 0 0 1 95.597 4.985 A 4.218 4.218 0 0 1 96.21 4.66 A 5.003 5.003 0 0 1 97.464 4.309 A 6.604 6.604 0 0 1 98.44 4.24 A 6.06 6.06 0 0 1 99.722 4.368 Q 100.742 4.589 101.47 5.19 Q 102.62 6.14 102.7 7.78 L 100.42 7.78 A 1.795 1.795 0 0 0 100.267 7.171 A 1.583 1.583 0 0 0 99.82 6.6 A 1.846 1.846 0 0 0 99.139 6.257 Q 98.868 6.181 98.545 6.165 A 3.611 3.611 0 0 0 98.36 6.16 Q 97.46 6.16 96.98 6.5 A 1.206 1.206 0 0 0 96.679 6.799 A 1.035 1.035 0 0 0 96.5 7.4 A 0.971 0.971 0 0 0 96.791 8.112 A 1.173 1.173 0 0 0 96.82 8.14 A 2.182 2.182 0 0 0 97.379 8.517 A 2.648 2.648 0 0 0 97.6 8.61 Q 98.06 8.78 98.96 9.04 Q 99.828 9.271 100.471 9.508 A 9.489 9.489 0 0 1 100.93 9.69 Q 101.7 10.02 102.26 10.66 Q 102.82 11.3 102.84 12.36 Q 102.84 13.3 102.32 14.04 A 3.242 3.242 0 0 1 101.351 14.938 A 4.177 4.177 0 0 1 100.85 15.2 A 4.755 4.755 0 0 1 99.712 15.534 A 6.58 6.58 0 0 1 98.62 15.62 A 6.174 6.174 0 0 1 97.315 15.487 A 5.005 5.005 0 0 1 96.29 15.15 A 4.497 4.497 0 0 1 95.317 14.555 A 3.77 3.77 0 0 1 94.66 13.87 Q 94.06 13.06 94.02 12.06 Z M 60.58 10.78 L 52.16 10.78 A 3.517 3.517 0 0 0 52.394 11.827 A 2.879 2.879 0 0 0 53.14 12.9 A 3.052 3.052 0 0 0 55.103 13.695 A 3.952 3.952 0 0 0 55.3 13.7 A 3.403 3.403 0 0 0 56.356 13.546 Q 57.341 13.226 57.859 12.241 A 3.501 3.501 0 0 0 57.9 12.16 L 60.36 12.16 Q 59.86 13.68 58.55 14.65 A 4.857 4.857 0 0 1 56.506 15.516 A 6.669 6.669 0 0 1 55.3 15.62 A 6.02 6.02 0 0 1 53.562 15.376 A 5.269 5.269 0 0 1 52.47 14.91 Q 51.22 14.2 50.51 12.91 A 5.692 5.692 0 0 1 49.87 10.942 A 7.312 7.312 0 0 1 49.8 9.92 Q 49.8 8.22 50.49 6.93 Q 51.18 5.64 52.43 4.94 A 5.495 5.495 0 0 1 54.507 4.284 A 6.906 6.906 0 0 1 55.3 4.24 A 6.109 6.109 0 0 1 56.926 4.449 A 5.185 5.185 0 0 1 58.08 4.92 Q 59.3 5.6 59.98 6.83 A 5.433 5.433 0 0 1 60.606 8.789 A 6.863 6.863 0 0 1 60.66 9.66 Q 60.66 10.28 60.58 10.78 Z M 24.48 6.02 L 24.48 4.42 L 26.78 4.42 L 26.78 15.44 L 24.48 15.44 L 24.48 13.8 A 4.191 4.191 0 0 1 23.538 14.712 A 5.362 5.362 0 0 1 22.9 15.1 Q 21.9 15.62 20.62 15.62 Q 19.2 15.62 18.02 14.89 A 5.135 5.135 0 0 1 16.238 13.011 A 6.12 6.12 0 0 1 16.15 12.85 Q 15.46 11.54 15.46 9.88 A 6.805 6.805 0 0 1 15.644 8.269 A 5.55 5.55 0 0 1 16.15 6.94 Q 16.84 5.66 18.03 4.95 Q 19.22 4.24 20.66 4.24 A 5.604 5.604 0 0 1 21.806 4.352 A 4.281 4.281 0 0 1 22.93 4.75 A 5.118 5.118 0 0 1 23.851 5.362 A 4.16 4.16 0 0 1 24.48 6.02 Z M 78.84 6.02 L 78.84 4.42 L 81.14 4.42 L 81.14 15.44 L 78.84 15.44 L 78.84 13.8 A 4.191 4.191 0 0 1 77.898 14.712 A 5.362 5.362 0 0 1 77.26 15.1 Q 76.26 15.62 74.98 15.62 Q 73.56 15.62 72.38 14.89 A 5.135 5.135 0 0 1 70.598 13.011 A 6.12 6.12 0 0 1 70.51 12.85 Q 69.82 11.54 69.82 9.88 A 6.805 6.805 0 0 1 70.004 8.269 A 5.55 5.55 0 0 1 70.51 6.94 Q 71.2 5.66 72.39 4.95 Q 73.58 4.24 75.02 4.24 A 5.604 5.604 0 0 1 76.166 4.352 A 4.281 4.281 0 0 1 77.29 4.75 A 5.118 5.118 0 0 1 78.211 5.362 A 4.16 4.16 0 0 1 78.84 6.02 Z M 127.88 4.42 L 127.88 6.28 L 125.84 6.28 L 125.84 15.44 L 123.54 15.44 L 123.54 6.28 L 122.24 6.28 L 122.24 4.42 L 123.54 4.42 L 123.54 3.64 Q 123.54 1.74 124.55 0.87 Q 125.541 0.017 127.638 0 A 10.56 10.56 0 0 1 127.72 0 L 127.72 1.9 Q 126.68 1.9 126.26 2.29 A 1.113 1.113 0 0 0 125.992 2.691 Q 125.85 3.039 125.841 3.568 A 4.241 4.241 0 0 0 125.84 3.64 L 125.84 4.42 L 127.88 4.42 Z M 134.52 4.42 L 134.52 6.28 L 132.48 6.28 L 132.48 15.44 L 130.18 15.44 L 130.18 6.28 L 128.88 6.28 L 128.88 4.42 L 130.18 4.42 L 130.18 3.64 Q 130.18 1.74 131.19 0.87 Q 132.181 0.017 134.278 0 A 10.56 10.56 0 0 1 134.36 0 L 134.36 1.9 Q 133.32 1.9 132.9 2.29 A 1.113 1.113 0 0 0 132.632 2.691 Q 132.49 3.039 132.481 3.568 A 4.241 4.241 0 0 0 132.48 3.64 L 132.48 4.42 L 134.52 4.42 Z M 113.383 15.321 A 5.899 5.899 0 0 0 115.28 15.62 A 6.969 6.969 0 0 0 115.391 15.619 A 5.942 5.942 0 0 0 118.17 14.91 Q 119.48 14.2 120.24 12.9 A 5.368 5.368 0 0 0 120.773 11.644 A 6.32 6.32 0 0 0 121 9.92 A 7.071 7.071 0 0 0 120.96 9.153 A 5.662 5.662 0 0 0 120.26 6.94 Q 119.52 5.64 118.24 4.94 A 5.551 5.551 0 0 0 117.281 4.527 A 6.148 6.148 0 0 0 115.38 4.24 A 6.891 6.891 0 0 0 114.99 4.251 A 5.758 5.758 0 0 0 112.52 4.94 Q 111.24 5.64 110.5 6.94 A 5.454 5.454 0 0 0 109.969 8.242 A 6.506 6.506 0 0 0 109.76 9.92 A 7.248 7.248 0 0 0 109.824 10.893 A 5.654 5.654 0 0 0 110.48 12.91 Q 111.2 14.2 112.46 14.91 A 5.373 5.373 0 0 0 113.383 15.321 Z M 68.48 4.24 L 68.48 6.6 L 67.9 6.6 A 4.218 4.218 0 0 0 67.126 6.666 Q 66.693 6.747 66.354 6.927 A 2.059 2.059 0 0 0 65.87 7.28 A 1.918 1.918 0 0 0 65.45 7.931 Q 65.208 8.523 65.183 9.431 A 7.727 7.727 0 0 0 65.18 9.64 L 65.18 15.44 L 62.9 15.44 L 62.9 4.42 L 65.18 4.42 L 65.18 6.02 Q 65.68 5.18 66.51 4.71 A 3.555 3.555 0 0 1 67.669 4.306 A 4.78 4.78 0 0 1 68.48 4.24 Z M 89.34 4.42 L 91.62 4.42 L 91.62 15.44 L 89.34 15.44 L 89.34 4.42 Z M 24.48 9.92 Q 24.48 8.78 24.01 7.94 A 3.531 3.531 0 0 0 23.37 7.102 A 3.101 3.101 0 0 0 22.78 6.66 Q 22.02 6.22 21.14 6.22 Q 20.26 6.22 19.5 6.65 A 3.165 3.165 0 0 0 18.424 7.66 A 3.857 3.857 0 0 0 18.27 7.91 A 3.555 3.555 0 0 0 17.866 9.069 A 4.78 4.78 0 0 0 17.8 9.88 A 4.679 4.679 0 0 0 17.914 10.934 A 3.693 3.693 0 0 0 18.27 11.88 A 3.562 3.562 0 0 0 18.904 12.728 A 3.112 3.112 0 0 0 19.51 13.19 Q 20.28 13.64 21.14 13.64 Q 22.02 13.64 22.78 13.2 Q 23.54 12.76 24.01 11.91 A 3.721 3.721 0 0 0 24.425 10.669 A 4.881 4.881 0 0 0 24.48 9.92 Z M 78.84 9.92 Q 78.84 8.78 78.37 7.94 A 3.531 3.531 0 0 0 77.73 7.102 A 3.101 3.101 0 0 0 77.14 6.66 Q 76.38 6.22 75.5 6.22 Q 74.62 6.22 73.86 6.65 A 3.165 3.165 0 0 0 72.784 7.66 A 3.857 3.857 0 0 0 72.63 7.91 A 3.555 3.555 0 0 0 72.226 9.069 A 4.78 4.78 0 0 0 72.16 9.88 A 4.679 4.679 0 0 0 72.274 10.934 A 3.693 3.693 0 0 0 72.63 11.88 A 3.562 3.562 0 0 0 73.264 12.728 A 3.112 3.112 0 0 0 73.87 13.19 Q 74.64 13.64 75.5 13.64 Q 76.38 13.64 77.14 13.2 Q 77.9 12.76 78.37 11.91 A 3.721 3.721 0 0 0 78.785 10.669 A 4.881 4.881 0 0 0 78.84 9.92 Z M 115.28 13.64 Q 116.16 13.64 116.93 13.22 A 3.108 3.108 0 0 0 118.007 12.236 A 3.845 3.845 0 0 0 118.18 11.96 Q 118.654 11.131 118.66 9.953 A 5.971 5.971 0 0 0 118.66 9.92 A 5.216 5.216 0 0 0 118.584 9.006 Q 118.473 8.383 118.2 7.89 Q 117.74 7.06 116.98 6.64 Q 116.22 6.22 115.34 6.22 Q 114.46 6.22 113.71 6.64 A 2.931 2.931 0 0 0 112.65 7.665 A 3.614 3.614 0 0 0 112.52 7.89 Q 112.08 8.72 112.08 9.92 A 5.592 5.592 0 0 0 112.178 11.001 Q 112.303 11.636 112.589 12.128 A 2.947 2.947 0 0 0 112.99 12.67 A 2.988 2.988 0 0 0 115.152 13.638 A 3.835 3.835 0 0 0 115.28 13.64 Z M 52.18 8.94 L 58.28 8.94 A 2.967 2.967 0 0 0 58.113 7.974 A 2.496 2.496 0 0 0 57.38 6.92 A 3.105 3.105 0 0 0 55.635 6.182 A 4.106 4.106 0 0 0 55.2 6.16 Q 54.02 6.16 53.18 6.91 Q 52.34 7.66 52.18 8.94 Z M 90.5 2.96 Q 89.88 2.96 89.46 2.54 A 1.409 1.409 0 0 1 89.04 1.519 A 1.812 1.812 0 0 1 89.04 1.5 Q 89.04 0.88 89.46 0.46 A 1.409 1.409 0 0 1 90.481 0.04 A 1.812 1.812 0 0 1 90.5 0.04 A 1.387 1.387 0 0 1 91.507 0.447 A 1.653 1.653 0 0 1 91.52 0.46 A 1.409 1.409 0 0 1 91.94 1.481 A 1.812 1.812 0 0 1 91.94 1.5 Q 91.94 2.12 91.52 2.54 A 1.387 1.387 0 0 1 90.519 2.96 A 1.698 1.698 0 0 1 90.5 2.96 Z" vector-effect="non-scaling-stroke"/></g></svg>